<?xml version="1.0" encoding="utf-8"?>
<!-- Generator: Adobe Illustrator 16.0.4, SVG Export Plug-In . SVG Version: 6.00 Build 0)  -->
<!DOCTYPE svg PUBLIC "-//W3C//DTD SVG 1.1//EN" "http://www.w3.org/Graphics/SVG/1.1/DTD/svg11.dtd">
<svg version="1.1" id="Layer_1" xmlns="http://www.w3.org/2000/svg" xmlns:xlink="http://www.w3.org/1999/xlink" x="0px" y="0px"
	 width="24px" height="24px" viewBox="0 0 24 24" enable-background="new 0 0 24 24" xml:space="preserve">
<path fill="#FFFFFF" d="M12,0C5.373,0,0,5.373,0,12s5.373,12,12,12s12-5.373,12-12S18.627,0,12,0z M10,16H8v-6h2V16z M9,9.109
	C8.393,9.109,7.9,8.613,7.9,8c0-0.612,0.492-1.109,1.1-1.109S10.1,7.388,10.1,8C10.1,8.613,9.607,9.109,9,9.109z M17,16h-1.998
	v-2.861c0-1.881-2.002-1.722-2.002,0V16h-2v-6h2v1.093c0.872-1.616,4-1.736,4,1.548V16z"/>
</svg>
